# xmcd CD database file
#
# Track frame offsets:
#	150
#	13650
#	31650
#	46060
#	63100
#	79035
#	92663
#	114325
#	141197
#	172187
#	186955
#
# Disc length: 2629 seconds
#
# Revision: 2
# Processed by: cddbd v1.5.2PL0 Copyright (c) Steve Scherf et al.
# Submitted via: CDex 1.70beta2
#
DISCID=830a430b
DTITLE=Various Artist - Wedding Jazz Album: First Dances
DYEAR=2004
DGENRE=Jazz
TTITLE0=Etta James - At Last
TTITLE1=Louis Armstrong - Love Is Here to Stay
TTITLE2=Billie Holiday - As Time Goes By
TTITLE3=Carmen McRae - When I Fall in Love
TTITLE4=Margaret Whiting - Way You Look Tonight
TTITLE5=Louis Armstrong - Kiss to Build a Dream On
TTITLE6=Sarah Vaughan - Embraceable You
TTITLE7=Blossom Dearie - Someone to Watch Over Me
TTITLE8=Shirley Horn - It Had to Be You
TTITLE9=Ella Fitzgerald - All the Things You Are
TTITLE10=Louis Armstrong - What a Wonderful World
EXTD=YEAR: 2004
EXTT0=
EXTT1=
EXTT2=
EXTT3=
EXTT4=
EXTT5=
EXTT6=
EXTT7=
EXTT8=
EXTT9=
EXTT10=
PLAYORDER=
